<svg width="86" height="97" viewBox="0 0 86 97" fill="none" xmlns="http://www.w3.org/2000/svg">
<path d="M0 7.00982C0.000343364 1.62149 5.83347 -1.74593 10.5 0.948292L44.7686 20.7334C44.6904 20.8335 44.6179 20.941 44.5547 21.0586L43.1406 23.5088L40.6914 22.0938C40.1363 21.7733 39.6267 21.6756 39.1631 21.7999L31.165 23.9424C30.5213 24.115 30.2857 24.5234 30.458 25.167L44.0684 75.9629L10.5 95.3448C5.83333 98.0391 0 94.6709 0 89.2823V71.8116C0.321336 72.2691 0.733043 72.5146 1.23828 72.545L9.82422 73.0596L17.1572 72.917C17.4286 72.8995 17.7165 72.8913 18.0205 72.8926C18.3502 72.8871 18.6439 72.8503 18.9014 72.7813L27.5557 70.462C28.1996 70.2894 28.4352 69.8813 28.2627 69.2374L26.3271 62.0118C26.1891 61.497 25.8909 61.2599 25.4326 61.2999L15.3936 63.2442L9.4209 62.8985L8.31348 57.6866L29.0625 52.127L24.8174 36.2862C24.6517 35.668 24.2944 35.2118 23.7461 34.917L13.9482 29.2598C13.3931 28.9394 12.8189 28.8589 12.2266 29.0176L0 32.293V7.00982ZM81.75 42.084C86.4167 44.7783 86.4167 51.5147 81.75 54.209L55.4375 69.3995L53.1416 60.8321L55.5908 62.2461C56.1203 62.5736 56.6943 62.654 57.3125 62.4883L63.2236 60.9043C63.816 60.7456 64.2732 60.3892 64.5938 59.834L70.25 50.0362C70.5774 49.5068 70.6588 48.9327 70.4932 48.3145L66.458 33.2549L81.75 42.084ZM49.7275 28.6182C50.5774 28.3905 51.2018 28.4024 51.6006 28.6543C51.9994 28.9064 52.3133 29.4577 52.541 30.3077L57.8828 50.2442C58.1105 51.0941 58.1149 51.7279 57.8955 52.1456C57.6761 52.5632 57.141 52.8856 56.291 53.1133L51.4229 54.418L45.4707 32.2022C45.2429 31.3522 45.2386 30.7175 45.458 30.2999C45.6775 29.8824 46.1995 29.5636 47.0234 29.3428L49.7275 28.6182ZM8.94824 38.8819C10.2104 38.5437 11.3434 38.7511 12.3457 39.504C13.3737 40.25 14.1014 41.4218 14.5293 43.0186L14.7363 43.7911C15.1711 45.4138 15.1297 46.8058 14.6123 47.9659C14.1207 49.1188 13.2434 49.864 11.9814 50.2022L11.248 50.3995C9.9859 50.7377 8.85294 50.5303 7.85059 49.7774C6.87408 49.0176 6.16917 47.8258 5.73438 46.2032L5.52637 45.4307C5.09847 43.8337 5.11813 42.4618 5.58398 41.3155C6.07562 40.1624 6.93949 39.4202 8.17578 39.0889L8.94824 38.8819Z" fill="#B40609"/>
</svg>
